<?xml version="1.0" encoding="UTF-8" standalone="no"?>
<!-- Created with Inkscape (http://www.inkscape.org/) -->

<svg
   xmlns:dc="http://purl.org/dc/elements/1.1/"
   xmlns:cc="http://creativecommons.org/ns#"
   xmlns:rdf="http://www.w3.org/1999/02/22-rdf-syntax-ns#"
   xmlns:svg="http://www.w3.org/2000/svg"
   xmlns="http://www.w3.org/2000/svg"
   xmlns:sodipodi="http://sodipodi.sourceforge.net/DTD/sodipodi-0.dtd"
   xmlns:inkscape="http://www.inkscape.org/namespaces/inkscape"
   width="50mm"
   height="50mm"
   viewBox="0 0 50 50"
   version="1.1"
   id="svg8"
   inkscape:version="0.92.1 r15371"
   sodipodi:docname="fav.svg">
  <defs
     id="defs2" />
  <sodipodi:namedview
     id="base"
     pagecolor="#ffffff"
     bordercolor="#666666"
     borderopacity="1.0"
     inkscape:pageopacity="0.0"
     inkscape:pageshadow="2"
     inkscape:zoom="1.9307551"
     inkscape:cx="77.042827"
     inkscape:cy="101.22839"
     inkscape:document-units="mm"
     inkscape:current-layer="layer1"
     showgrid="false"
     inkscape:window-width="1024"
     inkscape:window-height="715"
     inkscape:window-x="-8"
     inkscape:window-y="-8"
     inkscape:window-maximized="1" />
  <metadata
     id="metadata5">
    <rdf:RDF>
      <cc:Work
         rdf:about="">
        <dc:format>image/svg+xml</dc:format>
        <dc:type
           rdf:resource="http://purl.org/dc/dcmitype/StillImage" />
        <dc:title></dc:title>
      </cc:Work>
    </rdf:RDF>
  </metadata>
  <g
     inkscape:label="Layer 1"
     inkscape:groupmode="layer"
     id="layer1"
     transform="translate(0,-247)">
    <path
       style="fill:#00aad4;stroke-width:0.16256221"
       d="m 31.530398,295.17519 c -1.775694,-0.30974 -6.7872,-1.14231 -10.993917,-1.82642 -1.571178,-0.25551 -3.402054,-0.56946 -4.068616,-0.69765 -1.139495,-0.21915 -3.682486,-0.63655 -7.8775321,-1.293 -2.9146065,-0.45609 -2.9354238,-0.46212 -3.2104754,-0.93105 -0.3550477,-0.60531 -0.3141225,-1.41333 0.2737944,-5.40579 0.2843305,-1.93086 0.7901649,-5.36519 1.1240771,-7.63186 0.3339095,-2.26667 0.8794891,-6.04443 1.2123965,-8.39504 0.6418576,-4.53207 0.874988,-5.47923 1.5591483,-6.33445 0.2350535,-0.29382 0.6312802,-0.8036 0.8805012,-1.13281 0.249223,-0.32922 0.527898,-0.67266 0.619275,-0.76319 0.09138,-0.0906 0.374121,-0.45026 0.62832,-0.7994 2.42464,-3.33015 3.14256,-4.02357 4.377623,-4.22827 0.227079,-0.0377 1.031345,-0.21237 1.787256,-0.38831 2.043144,-0.47553 1.999931,-0.48916 2.011679,0.6341 0.0055,0.52469 0.06637,1.22873 0.135286,1.56454 0.100476,0.48953 0.04743,0.73155 -0.26759,1.22108 -0.777031,1.20748 -0.419683,2.52562 0.806047,2.97323 0.459918,0.16793 0.619874,0.1476 1.338802,-0.17014 0.449062,-0.19849 1.054188,-0.62485 1.344719,-0.94744 0.466521,-0.51803 0.528241,-0.70252 0.528241,-1.579 0,-0.91955 -0.03815,-1.01935 -0.519397,-1.35881 -0.296805,-0.20936 -0.750205,-0.3667 -1.057962,-0.36712 -0.520266,-7.3e-4 -0.542276,-0.0281 -0.647743,-0.80211 -0.124617,-0.91471 -0.146379,-1.94612 -0.04105,-1.94612 0.03912,0 0.798742,-0.16446 1.688042,-0.36546 0.889298,-0.20103 2.201229,-0.47993 2.915402,-0.61983 0.714171,-0.13987 1.415358,-0.29488 1.558193,-0.34444 0.42637,-0.14794 0.742312,-0.197 1.471626,-0.2285 1.717029,-0.0742 2.578586,0.44727 4.511104,2.73023 0.840079,0.99243 1.938053,2.29064 2.439931,2.88489 0.501883,0.59426 0.999324,1.28113 1.105429,1.52638 0.141705,0.32753 0.141956,1.31703 9.16e-4,3.72759 -0.239724,4.09808 -0.576552,10.18323 -1.123701,20.30076 -0.500705,9.25871 -0.568642,10.13406 -0.791713,10.20124 -0.0929,0.0281 -0.168922,0.14919 -0.168922,0.26937 0,0.29581 -1.022705,0.82681 -1.558192,0.809 -0.238059,-0.007 -1.134019,-0.1367 -1.991026,-0.2862 z m -9.092838,-7.08952 c 1.04928,-0.34072 2.457718,-1.21615 3.112746,-1.93475 0.84549,-0.92755 1.530112,-2.44042 1.760007,-3.88926 0.49791,-3.13788 -0.747797,-5.23216 -4.6146,-7.75807 -0.759076,-0.49584 -1.640558,-1.18067 -1.958852,-1.52181 -0.510678,-0.54734 -0.566085,-0.69258 -0.471299,-1.23538 0.12941,-0.74105 0.558904,-1.29833 1.238719,-1.60725 0.739215,-0.33592 3.718291,-0.30129 4.745574,0.0551 0.428503,0.14869 0.895962,0.30359 1.038796,0.34422 0.200874,0.0572 0.486098,-0.51763 1.259197,-2.53751 0.549723,-1.43628 0.961224,-2.666 0.914444,-2.73273 -0.04678,-0.0667 -0.523463,-0.24291 -1.059299,-0.39149 -1.452888,-0.40289 -5.383844,-0.26117 -7.102742,0.25605 -3.15427,0.94914 -5.292079,2.80414 -6.257868,5.43001 -0.809158,2.2 -0.682637,4.16321 0.370395,5.74736 0.247162,0.37181 1.048631,1.14453 1.781039,1.71711 2.909767,2.27485 3.169531,2.58596 3.169531,3.79609 0,0.52983 -0.108457,0.78146 -0.505589,1.173 -0.472672,0.46603 -0.576934,0.4979 -1.601475,0.48951 -1.234762,-0.0107 -2.207456,-0.34252 -3.820769,-1.30577 -0.546455,-0.32629 -1.062606,-0.59322 -1.147003,-0.59322 -0.08438,0 -0.202949,0.22323 -0.263447,0.49607 -0.0605,0.27284 -0.354521,1.17975 -0.653382,2.01535 l -0.54338,1.51928 0.78336,0.62526 c 1.005615,0.80266 3.025817,1.7013 4.462167,1.98489 1.432768,0.28289 4.287879,0.20723 5.36373,-0.14212 z"
       id="path21"
       inkscape:connector-curvature="0" />
    <path
       style="fill:#00ccff;stroke-width:0.16256221"
       d="m 43.043714,291.81567 c -0.523728,-0.0581 -2.374082,-0.23367 -4.111898,-0.39005 l -3.15967,-0.28436 9.17e-4,-0.46516 c 4.58e-4,-0.25584 0.350363,-6.71566 0.777553,-14.35514 0.877231,-15.68762 0.880658,-15.79691 0.515997,-16.46176 -0.145093,-0.26453 -1.162566,-1.5358 -2.261049,-2.82502 -1.098481,-1.28923 -1.96291,-2.37431 -1.920956,-2.41131 0.04196,-0.037 0.196857,0.039 0.344226,0.16897 0.147367,0.12993 0.308729,0.23623 0.358581,0.23623 0.04985,0 0.611279,0.32626 1.247621,0.72502 0.63634,0.39878 1.594464,0.99577 2.129168,1.32667 0.534704,0.33089 1.283822,0.79702 1.664716,1.03583 0.380892,0.23882 0.978483,0.60084 1.327978,0.8045 1.184928,0.6905 1.467939,1.19112 1.768974,3.12929 0.149953,0.96544 0.436822,2.78564 0.637485,4.04489 0.200662,1.25925 0.587178,3.76632 0.858924,5.57125 0.271746,1.80494 0.731973,4.86149 1.022726,6.79235 0.290753,1.93087 0.648479,4.19753 0.79495,5.03703 0.676625,3.87812 1.1006,7.27591 0.951134,7.62251 -0.34,0.78841 -0.91285,0.92412 -2.947289,0.69826 z"
       id="path23"
       inkscape:connector-curvature="0" />
    <path
       style="fill:#217867;stroke-width:0.16256221"
       d="m 20.159411,261.45024 c -0.875295,-0.60702 -0.984387,-1.5386 -0.323073,-2.75888 0.253036,-0.46691 0.268674,-0.77593 0.124101,-2.45225 -0.139959,-1.62277 -0.120115,-2.09759 0.128937,-3.08452 0.380977,-1.5097 1.145402,-2.84278 2.080864,-3.62878 1.061988,-0.89232 1.588001,-1.10185 2.781121,-1.10783 1.194777,-0.006 2.077252,0.32865 3.035424,1.15101 0.605736,0.51986 1.591492,2.09309 1.818601,2.90241 0.108972,0.38832 0.07856,0.41975 -0.406216,0.41975 -0.288204,0 -0.63763,0.0385 -0.776504,0.0855 -0.16745,0.0566 -0.289422,-0.0444 -0.362122,-0.29965 -0.208192,-0.73129 -1.299287,-2.15287 -1.944323,-2.53324 -2.316406,-1.36592 -4.905389,1.299 -4.912022,5.05611 -0.0032,1.77879 0.10141,2.07234 0.777959,2.18425 0.313455,0.0518 0.772596,0.2348 1.020314,0.40658 0.3908,0.27102 0.450308,0.42702 0.449747,1.17893 -7.55e-4,1.00243 -0.346486,1.61094 -1.267012,2.22994 -0.844843,0.56811 -1.639126,0.65759 -2.225796,0.25075 z"
       id="path25"
       inkscape:connector-curvature="0" />
    <path
       style="fill:#ffffff;stroke-width:0.16256221"
       d="m 16.748991,288.07102 c -1.208535,-0.29805 -3.087737,-1.173 -4.003349,-1.86396 -0.586583,-0.44265 -0.708167,-0.62158 -0.640381,-0.94242 0.14795,-0.70021 1.035925,-3.29154 1.175942,-3.43169 0.07503,-0.0751 0.5824,0.126 1.137522,0.45081 1.479158,0.86558 2.744455,1.27961 3.923633,1.28384 0.881093,0.004 1.071299,-0.0514 1.502178,-0.43132 0.66002,-0.58189 0.815609,-1.37246 0.440521,-2.23834 -0.3282,-0.75765 -0.568709,-0.99545 -2.819395,-2.78753 -2.043639,-1.62722 -2.669149,-2.64353 -2.780748,-4.51806 -0.240767,-4.0442 3.038581,-7.74144 7.612128,-8.58217 1.466628,-0.26959 4.970209,-0.31421 5.948618,-0.0759 1.228601,0.29943 1.219041,0.26902 0.610678,1.94239 -0.664229,1.82702 -1.396897,3.56761 -1.50172,3.56761 -0.04229,0 -0.561369,-0.1448 -1.153508,-0.32178 -1.451034,-0.4337 -3.743163,-0.46451 -4.689558,-0.063 -0.841077,0.35678 -1.319851,1.03387 -1.320689,1.86773 -8.03e-4,0.80123 0.526235,1.36726 2.499974,2.68487 1.91236,1.27665 3.304906,2.59474 3.936725,3.72622 0.433517,0.77635 0.5461,1.19648 0.61377,2.29043 0.199339,3.22237 -1.3667,5.84768 -4.229392,7.09014 -1.069653,0.46425 -1.272486,0.498 -3.236657,0.53844 -1.469323,0.0302 -2.373629,-0.0254 -3.026292,-0.18641 z"
       id="path27"
       inkscape:connector-curvature="0" />
  </g>
</svg>
