<?xml version="1.0" encoding="UTF-8" standalone="no"?>
<!-- Created with Inkscape (http://www.inkscape.org/) -->

<svg
   xmlns:dc="http://purl.org/dc/elements/1.1/"
   xmlns:cc="http://creativecommons.org/ns#"
   xmlns:rdf="http://www.w3.org/1999/02/22-rdf-syntax-ns#"
   xmlns:svg="http://www.w3.org/2000/svg"
   xmlns="http://www.w3.org/2000/svg"
   xmlns:sodipodi="http://sodipodi.sourceforge.net/DTD/sodipodi-0.dtd"
   xmlns:inkscape="http://www.inkscape.org/namespaces/inkscape"
   width="192mm"
   height="50mm"
   viewBox="0 0 192 50"
   version="1.1"
   id="svg8"
   inkscape:version="0.92.1 r15371"
   sodipodi:docname="logo.svg">
  <defs
     id="defs2" />
  <sodipodi:namedview
     id="base"
     pagecolor="#ffffff"
     bordercolor="#666666"
     borderopacity="1.0"
     inkscape:pageopacity="0.0"
     inkscape:pageshadow="2"
     inkscape:zoom="0.90587882"
     inkscape:cx="388.5976"
     inkscape:cy="77.665727"
     inkscape:document-units="mm"
     inkscape:current-layer="layer1"
     showgrid="false"
     inkscape:window-width="1024"
     inkscape:window-height="715"
     inkscape:window-x="-8"
     inkscape:window-y="-8"
     inkscape:window-maximized="1" />
  <metadata
     id="metadata5">
    <rdf:RDF>
      <cc:Work
         rdf:about="">
        <dc:format>image/svg+xml</dc:format>
        <dc:type
           rdf:resource="http://purl.org/dc/dcmitype/StillImage" />
        <dc:title></dc:title>
      </cc:Work>
    </rdf:RDF>
  </metadata>
  <g
     inkscape:label="Layer 1"
     inkscape:groupmode="layer"
     id="layer1"
     transform="translate(0,-247)">
    <path
       style="fill:#00aad4;stroke-width:0.16245291"
       d="m 26.817055,295.70753 c -1.737986,-0.31603 -6.643069,-1.16552 -10.760454,-1.86353 -1.537813,-0.26071 -3.329809,-0.58104 -3.982216,-0.71183 -1.115297,-0.22361 -3.6042861,-0.64949 -7.7102477,-1.31928 -2.852713,-0.46536 -2.8730882,-0.47151 -3.1422989,-0.94997 -0.34750802,-0.61761 -0.3074519,-1.44205 0.2679802,-5.51565 0.2782926,-1.9701 0.7733852,-5.47423 1.1002066,-7.78697 0.3268187,-2.31273 0.8608126,-6.16727 1.1866505,-8.56565 0.6282273,-4.62417 0.856407,-5.59058 1.5260387,-6.46318 0.230062,-0.29979 0.6178746,-0.81993 0.8618032,-1.15584 0.2439306,-0.33591 0.5166878,-0.68633 0.6061243,-0.7787 0.08944,-0.0924 0.3661763,-0.45941 0.6149772,-0.81564 2.3731512,-3.39783 3.0758259,-4.10534 4.2846609,-4.3142 0.222257,-0.0385 1.009444,-0.21669 1.749303,-0.3962 1.999756,-0.4852 1.957461,-0.49911 1.96896,0.64698 0.0054,0.53536 0.06496,1.2537 0.132413,1.59634 0.09834,0.49948 0.04642,0.74642 -0.261908,1.24589 -0.76053,1.23202 -0.410771,2.57695 0.78893,3.03366 0.450152,0.17134 0.606711,0.1506 1.310372,-0.1736 0.439526,-0.20252 1.031802,-0.63755 1.316163,-0.96669 0.456614,-0.52856 0.517023,-0.7168 0.517023,-1.61109 0,-0.93824 -0.03734,-1.04007 -0.508367,-1.38643 -0.290502,-0.21361 -0.734274,-0.37415 -1.035495,-0.37458 -0.509218,-7.4e-4 -0.530761,-0.0287 -0.633988,-0.81841 -0.121971,-0.9333 -0.143271,-1.98567 -0.04018,-1.98567 0.03829,0 0.78178,-0.1678 1.652195,-0.37289 0.870413,-0.20511 2.154484,-0.48968 2.853491,-0.63243 0.699006,-0.14271 1.385302,-0.30087 1.525104,-0.35144 0.417316,-0.15094 0.726549,-0.201 1.440375,-0.23314 1.680567,-0.0757 2.523828,0.45636 4.415308,2.78572 0.822239,1.0126 1.896897,2.33719 2.388118,2.94352 0.491225,0.60633 0.978102,1.30716 1.081954,1.5574 0.138696,0.33418 0.138942,1.34379 8.97e-4,3.80334 -0.234634,4.18137 -0.564309,10.39019 -1.099839,20.71334 -0.490072,9.44687 -0.556566,10.34001 -0.7749,10.40856 -0.09093,0.0287 -0.165335,0.15222 -0.165335,0.27484 0,0.30182 -1.000987,0.84361 -1.525103,0.82544 -0.233004,-0.007 -1.109937,-0.13948 -1.948745,-0.29202 z m -8.899745,-7.2336 c 1.026997,-0.34764 2.405526,-1.24086 3.046644,-1.97407 0.827536,-0.9464 1.497619,-2.49001 1.722632,-3.9683 0.487337,-3.20165 -0.731917,-5.33849 -4.516606,-7.91573 -0.742956,-0.50592 -1.605719,-1.20467 -1.917254,-1.55274 -0.499833,-0.55847 -0.554064,-0.70666 -0.461291,-1.26049 0.126662,-0.75611 0.547036,-1.32471 1.212414,-1.63991 0.723518,-0.34275 3.639331,-0.30742 4.644799,0.0562 0.419403,0.15171 0.876936,0.30976 1.016736,0.35121 0.196609,0.0584 0.475776,-0.52815 1.232458,-2.58908 0.538049,-1.46547 0.940811,-2.72018 0.895025,-2.78826 -0.04579,-0.0681 -0.512347,-0.24785 -1.036804,-0.39945 -1.422035,-0.41108 -5.269515,-0.26648 -6.951911,0.26125 -3.087287,0.96843 -5.179698,2.86113 -6.124978,5.54037 -0.7919751,2.24471 -0.668141,4.24782 0.362529,5.86416 0.241914,0.37937 1.026363,1.16779 1.743218,1.75201 2.847976,2.32108 3.102224,2.63851 3.102224,3.87324 0,0.54059 -0.106154,0.79734 -0.494853,1.19683 -0.462634,0.47551 -0.564682,0.50802 -1.567466,0.49946 -1.208541,-0.0109 -2.16058,-0.34948 -3.739633,-1.3323 -0.5348505,-0.33293 -1.0400407,-0.60528 -1.1226455,-0.60528 -0.082588,0 -0.1986393,0.22777 -0.2578525,0.50615 -0.059215,0.27839 -0.3469926,1.20373 -0.639507,2.05631 l -0.531841,1.55016 0.7667248,0.63796 c 0.9842601,0.81897 2.9615622,1.73588 4.3674102,2.02523 1.402342,0.28864 4.196823,0.21144 5.249828,-0.14501 z"
       id="path21"
       inkscape:connector-curvature="0" />
    <path
       style="fill:#00ccff;stroke-width:0.16245291"
       d="m 38.085878,292.27974 c -0.512606,-0.0593 -2.323666,-0.23842 -4.024579,-0.39798 l -3.092572,-0.29014 8.97e-4,-0.47461 c 4.49e-4,-0.26104 0.342923,-6.85214 0.761042,-14.64688 0.858602,-16.00644 0.861956,-16.11795 0.505039,-16.79631 -0.142012,-0.26991 -1.137878,-1.56701 -2.213034,-2.88244 -1.075154,-1.31543 -1.921226,-2.42256 -1.880163,-2.46031 0.04107,-0.0378 0.192676,0.0398 0.336916,0.1724 0.144237,0.13257 0.302173,0.24103 0.350966,0.24103 0.04879,0 0.598298,0.3329 1.221127,0.73976 0.622827,0.40688 1.560605,1.01601 2.083954,1.35363 0.523349,0.33762 1.256559,0.81322 1.629364,1.05688 0.372804,0.24368 0.957705,0.61305 1.299778,0.82085 1.159765,0.70454 1.436766,1.21533 1.731409,3.19289 0.146768,0.98506 0.427545,2.84225 0.623947,4.12709 0.196401,1.28484 0.574709,3.84287 0.840684,5.68448 0.265976,1.84162 0.71643,4.96029 1.001008,6.93039 0.284579,1.97011 0.634708,4.28283 0.778069,5.1394 0.662256,3.95693 1.077228,7.42377 0.930936,7.77742 -0.33278,0.80443 -0.893465,0.9429 -2.884701,0.71245 z"
       id="path23"
       inkscape:connector-curvature="0" />
    <path
       style="fill:#217867;stroke-width:0.16245291"
       d="m 15.687538,261.29719 c -0.856707,-0.61935 -0.963482,-1.56987 -0.316212,-2.81495 0.247663,-0.4764 0.262969,-0.7917 0.121466,-2.50208 -0.136987,-1.65575 -0.117564,-2.14022 0.126199,-3.14721 0.372886,-1.54038 1.121078,-2.90055 2.036675,-3.70253 1.039436,-0.91045 1.554279,-1.12424 2.722062,-1.13034 1.169405,-0.006 2.033141,0.33533 2.970965,1.1744 0.592873,0.53042 1.557696,2.13563 1.779982,2.9614 0.106658,0.39621 0.07689,0.42828 -0.39759,0.42828 -0.282084,0 -0.624089,0.0393 -0.760014,0.0872 -0.163894,0.0577 -0.283276,-0.0453 -0.354432,-0.30574 -0.203771,-0.74615 -1.271696,-2.19662 -1.903034,-2.58472 -2.267216,-1.39368 -4.80122,1.3254 -4.807712,5.15887 -0.0031,1.81494 0.09926,2.11445 0.761438,2.22864 0.306799,0.0528 0.75619,0.23957 0.998647,0.41484 0.382501,0.27653 0.440746,0.4357 0.440196,1.20289 -7.39e-4,1.0228 -0.339128,1.64368 -1.240106,2.27526 -0.826902,0.57965 -1.604318,0.67095 -2.17853,0.25584 z"
       id="path25"
       inkscape:connector-curvature="0" />
    <path
       style="fill:#ffffff;stroke-width:0.16245291"
       d="m 12.349541,288.45899 c -1.182871,-0.30411 -3.0221669,-1.19684 -3.9183353,-1.90184 -0.5741265,-0.45165 -0.6931286,-0.63422 -0.6267821,-0.96158 0.1448082,-0.71444 1.0139265,-3.35843 1.1509701,-3.50143 0.073437,-0.0766 0.5700324,0.12856 1.1133663,0.45997 1.447747,0.88317 2.686174,1.30562 3.840312,1.30993 0.862382,0.004 1.048549,-0.0524 1.470278,-0.44008 0.646004,-0.59372 0.798289,-1.40035 0.431166,-2.28383 -0.32123,-0.77305 -0.556632,-1.01568 -2.759523,-2.84418 -2.000241,-1.66029 -2.612468,-2.69726 -2.721697,-4.60988 -0.235654,-4.12639 2.974055,-7.89877 7.45048,-8.75659 1.435483,-0.27507 4.864663,-0.32059 5.822295,-0.0774 1.202511,0.30551 1.193154,0.27449 0.59771,1.98186 -0.650124,1.86415 -1.367233,3.64012 -1.46983,3.64012 -0.04139,0 -0.549448,-0.14774 -1.129013,-0.32832 -1.42022,-0.44252 -3.663674,-0.47395 -4.589972,-0.0643 -0.823216,0.36403 -1.291823,1.05488 -1.292643,1.90569 -7.86e-4,0.81751 0.51506,1.39504 2.446885,2.73943 1.87175,1.3026 3.234724,2.64747 3.853126,3.80195 0.424311,0.79213 0.534503,1.22079 0.600736,2.33698 0.195106,3.28786 -1.337677,5.96652 -4.139578,7.23423 -1.046938,0.47369 -1.245464,0.50812 -3.167924,0.54938 -1.438121,0.0308 -2.323224,-0.0259 -2.962027,-0.1902 z"
       id="path27"
       inkscape:connector-curvature="0" />
    <path
       style="fill:#00aad4;stroke-width:0.26147673"
       d="m 136.15164,262.48886 c -0.17597,-0.007 -0.31323,0.11818 -0.58522,0.36871 -0.30064,0.27691 -0.99723,0.7011 -1.54786,0.94272 -0.55063,0.24162 -0.91147,0.53374 -0.80186,0.64947 0.1096,0.11572 0.0514,0.12967 -0.12895,0.0305 -0.18037,-0.0992 -0.82795,-0.0516 -1.43928,0.1059 -0.61132,0.15754 -1.91592,0.29305 -2.89893,0.30127 -1.84684,0.0155 -2.90071,0.4276 -2.53609,0.99218 0.12324,0.19085 0.0908,0.24679 -0.0841,0.14339 -0.41221,-0.2438 -2.20243,1.83836 -2.00465,2.3316 0.11528,0.28748 0.0598,0.34046 -0.19733,0.18834 -0.26389,-0.15606 -0.31188,-0.0961 -0.1822,0.22733 0.0968,0.24141 0.0722,0.37756 -0.0542,0.30275 -0.3059,-0.18092 -1.00853,1.62554 -1.54369,3.96777 -0.55879,2.44555 -0.63211,8.71384 -0.12687,10.8497 0.69015,2.91751 1.1209,4.22057 1.39543,4.22057 0.15159,0 0.20153,0.11511 0.11068,0.25579 -0.0908,0.14069 -0.0581,0.25579 0.073,0.25579 0.13119,0 0.23858,0.14755 0.23858,0.32774 0,0.69021 0.92094,1.68394 1.46747,1.58322 0.46599,-0.0858 0.4918,-0.0441 0.18794,0.30624 -0.30226,0.34855 -0.22359,0.50852 0.55441,1.13009 0.49849,0.39827 1.00975,0.66299 1.1365,0.58802 0.12674,-0.0749 0.19753,0.0161 0.15713,0.20234 -0.0406,0.18735 0.13442,0.32314 0.39153,0.30375 0.25569,-0.0192 0.40634,0.0557 0.33464,0.16686 -0.27399,0.42425 4.19995,2.38208 5.18548,2.26917 0.23647,-0.027 0.61058,0.0203 0.8311,0.10541 0.22051,0.0851 0.70162,0.19568 1.06914,0.2458 1.64907,0.22485 6.49674,0.18744 8.17577,-0.063 2.17217,-0.32392 4.35657,-0.95633 4.92133,-1.42483 0.22051,-0.18293 0.5212,-0.33984 0.66821,-0.34872 0.147,-0.009 0.47778,-0.18836 0.73504,-0.39917 0.25726,-0.21081 0.46775,-0.32232 0.46775,-0.24781 0,0.2031 0.74757,-0.38957 2.11585,-1.67664 2.18933,-2.05937 3.62074,-5.51326 4.16175,-10.04134 l 0.17646,-1.4733 -0.79665,-0.15238 c -0.43497,-0.0658 -1.55708,-1.16392 -1.67316,-1.01768 -0.64715,0.81541 0.0885,1.70421 0.005,0.45189 -0.11423,-1.70335 0.86295,1.93269 2.19577,1.20658 0.71077,-0.38722 -0.59333,-8.12335 -0.74328,-8.92457 -0.26427,-1.41219 -0.9252,-2.82736 -1.23463,-2.64435 -0.15505,0.0918 -0.20168,0.0442 -0.10442,-0.10641 0.23512,-0.36407 -0.0842,-1.1217 -0.39519,-0.93774 -0.13524,0.0799 -0.2288,0.0505 -0.20777,-0.0654 0.0876,-0.48255 -0.0676,-0.77503 -0.89322,-1.68014 -1.24092,-1.36037 -2.54063,-2.2081 -3.15106,-2.05533 -0.28506,0.0713 -0.44121,0.24974 -0.34664,0.39617 0.0946,0.14644 0.053,0.19591 -0.0924,0.10991 -0.1454,-0.0859 -1.15623,-0.0638 -2.24636,0.0495 -2.3007,0.23904 -5.63325,-0.0539 -7.26218,-0.63848 -0.62408,-0.22398 -1.33937,-0.42087 -1.58963,-0.43714 -0.25027,-0.0163 -0.40194,-0.0804 -0.33672,-0.14288 0.0653,-0.0624 -0.26569,-0.36585 -0.73557,-0.67396 -0.42509,-0.27875 -0.63946,-0.41803 -0.81543,-0.42515 z m -65.013507,0.0969 -1.737368,0.78237 c -0.955554,0.43032 -1.917789,0.81088 -2.1383,0.84581 -0.220512,0.0349 -1.122608,0.18798 -2.004657,0.34023 -2.078091,0.35868 -6.11964,0.35516 -7.484049,-0.007 -0.588033,-0.15587 -1.378148,-0.49316 -1.755641,-0.7499 -0.67245,-0.45735 -0.700814,-0.45487 -1.39856,0.11891 -0.391691,0.3221 -0.62395,0.6785 -0.516303,0.79235 0.107645,0.11385 0.06267,0.13453 -0.09971,0.0459 -0.692969,-0.3779 -2.316729,2.1702 -2.798686,4.39194 -0.339368,1.5644 -0.236157,5.82905 0.155568,6.43028 0.137496,0.21103 0.285699,0.60384 0.329411,0.87279 0.103962,0.63967 1.044961,2.13721 1.916433,3.05003 0.380874,0.39893 1.474569,1.07791 2.430121,1.50876 1.907821,0.86024 1.049392,0.78888 12.963444,1.07864 5.587855,0.1359 5.788476,0.15463 6.345468,0.59701 0.212117,0.16847 0.474665,0.22119 0.583646,0.1169 0.108984,-0.10428 0.162509,-0.0747 0.119026,0.0659 -0.04348,0.14069 0.08042,0.53158 0.275119,0.86829 0.497395,0.86023 0.260079,3.19267 -0.395711,3.88935 -0.282112,0.29969 -0.801839,0.65075 -1.154765,0.77986 -0.352929,0.12912 -5.524942,0.25968 -11.493362,0.29026 l -10.851246,0.0555 -0.06055,3.39425 -0.06004,3.39374 12.114597,-0.0145 c 11.934626,-0.0143 14.19436,-0.10127 13.913566,-0.53607 -0.07822,-0.12111 0.03005,-0.15678 0.240664,-0.0794 1.098383,0.40336 5.529605,-2.93642 5.150504,-3.88186 -0.08469,-0.21119 -0.04511,-0.31984 0.08771,-0.24129 0.132805,0.0786 0.46213,-0.40448 0.731908,-1.07364 0.383189,-0.95044 0.489433,-1.91661 0.485504,-4.41441 -0.0043,-2.7263 -0.171377,-4.02399 -0.814915,-4.77262 0.0083,-0.15226 0.01473,-0.40357 0.0079,-0.90878 -0.01486,-1.0871 -0.555928,-2.462 -1.971245,-3.29332 -0.533458,-0.82962 -5.252924,-0.81141 -5.272663,-0.81134 0.04308,-0.10071 -3.019303,-0.18446 -6.911888,-0.18735 -3.96922,-0.003 -7.646663,-0.11959 -8.172107,-0.25928 -1.336355,-0.35526 -2.155099,-1.2799 -2.306396,-2.60489 -0.165872,-1.45261 0.244971,-2.39447 1.31712,-3.02005 0.83654,-0.48808 1.352493,-0.51105 11.641102,-0.51208 l 10.76615,-9.6e-4 -0.03863,-2.30813 -0.03863,-2.30813 -0.971526,0.19784 c -0.534281,0.10884 -2.534639,0.19576 -4.445745,0.19284 -3.719551,-0.006 -4.942271,-0.31628 -6.147088,-1.56173 z m 97.493627,0.12789 c -0.0307,0.002 -0.0517,0.009 -0.0616,0.0215 -1.08203,1.35232 -3.40164,2.12736 -6.35382,2.12228 -1.3388,-0.002 -1.93925,0.0922 -1.94201,0.30625 -0.0801,6.20812 -0.0163,12.78153 0.12529,12.91702 0.0495,0.0474 0.11911,0.0481 0.19211,0.0124 l -0.0736,1.03565 c -0.0131,-0.0691 -0.0268,-0.13731 -0.034,-0.21332 -0.0336,-0.35876 -0.12385,3.03094 -0.20047,7.53287 -0.0766,4.50196 -0.0975,8.37668 -0.047,8.61053 0.0805,0.3725 0.60268,0.42931 4.21917,0.45712 l 4.12783,0.0315 -0.0198,-5.18877 c -0.0108,-2.85399 -0.0154,-5.37991 -0.0101,-5.61295 0.009,-0.38155 0.74884,-0.43362 7.42767,-0.52457 6.71709,-0.0915 7.54642,-0.15085 8.78864,-0.6275 1.66331,-0.63821 3.36439,-1.83533 3.1281,-2.20121 -0.0948,-0.14678 -0.0493,-0.19417 0.10072,-0.10542 0.15008,0.0887 0.48775,-0.0661 0.75069,-0.34422 0.26295,-0.27805 0.36953,-0.50703 0.2365,-0.50908 -0.13305,-0.002 -0.10763,-0.0885 0.0564,-0.19185 0.54436,-0.34306 1.38372,-2.22508 1.71805,-3.85137 0.4804,-2.33679 0.20568,-6.69689 -0.53509,-8.48711 -0.73496,-1.77615 -1.35424,-2.70441 -1.57711,-2.36358 -0.0979,0.14976 -0.39226,-0.0271 -0.68754,-0.41367 l -0.5163,-0.67594 0.58313,0.4876 c 0.32067,0.268 0.58313,0.36224 0.58313,0.20933 0,-0.15291 -0.39092,-0.53946 -0.86869,-0.8588 -0.47777,-0.31935 -0.94558,-0.68752 -1.03939,-0.81784 -0.0939,-0.13032 -0.32284,-0.14658 -0.50899,-0.0364 -0.20718,0.12253 -0.27178,0.097 -0.16654,-0.0659 0.32671,-0.5059 -0.98839,-0.58163 -1.55257,-0.0894 -1.26905,1.10713 -2.33322,1.40366 -5.41153,1.50828 -3.47872,0.11823 -6.21736,-0.35293 -8.75313,-1.50628 -0.76776,-0.34919 -1.46336,-0.5811 -1.67838,-0.56703 z m -79.451722,1.12359 v 15.84563 15.84613 l 4.209777,5.2e-4 h 4.209779 v -6.58665 -6.58715 l 5.947146,-0.0685 5.94714,-0.069 0.0334,6.27189 c 0.0184,3.4495 0.0484,6.4153 0.0669,6.59116 0.0251,0.23858 1.10207,0.33236 4.24319,0.3692 l 4.20978,0.0495 v -10.2172 c 0,-3.05898 -0.0227,-5.38627 -0.0611,-7.09475 l 0.0611,-5.71786 v -4.35695 c 0,-4.04521 -0.0334,-4.34471 -0.46776,-4.18361 -1.56007,0.57877 -3.70926,0.9308 -5.76965,0.94474 l -2.36122,0.016 0.17229,5.53551 c 0.0461,1.47792 0.0821,2.79499 0.10858,3.9503 l -12.275386,0.0424 0.012,-1.66466 0.02192,-3.38425 c 0.01224,-1.8614 0.05122,-3.63042 0.08666,-3.9308 0.062,-0.52548 -0.05741,-0.55028 -3.162554,-0.65997 -2.14898,-0.0759 -3.562199,-0.25246 -4.229616,-0.52807 z m 50.256832,1.76457 c 0.95627,-2.5e-4 1.3847,0.15207 2.0412,0.72591 0.4569,0.39937 0.90954,1.07006 1.00599,1.49029 0.13101,0.57086 0.43989,0.87548 1.22158,1.20552 0.57543,0.24296 1.37147,0.80966 1.76921,1.25947 0.39775,0.44983 0.83309,0.78656 0.96735,0.7479 0.13427,-0.0387 0.17348,0.0388 0.0872,0.17236 -0.0863,0.13362 -0.018,0.53497 0.15192,0.89178 0.0669,0.1404 0.12602,0.24818 0.19055,0.33173 l 0.8927,3.60956 c -0.0336,0.54944 -0.042,1.34564 -0.0361,2.53945 0.0177,3.51072 -0.28992,5.73337 -0.96996,7.0088 -0.19677,0.36905 -0.27249,0.77193 -0.16809,0.89528 0.10439,0.12336 0.0838,0.1422 -0.046,0.0414 -0.24894,-0.19326 -1.41544,1.05563 -1.30094,1.39287 0.0368,0.10824 -0.0234,0.17041 -0.13364,0.13789 -0.11025,-0.0325 -0.80186,0.22442 -1.5369,0.57103 -1.13701,0.53619 -1.77517,0.63962 -4.2766,0.69395 -2.97865,0.0647 -4.09185,-0.14748 -5.54256,-1.05715 -0.35644,-0.2235 -0.69833,-0.37689 -0.7601,-0.34122 -0.0617,0.0357 -0.0878,0.0215 -0.0574,-0.0309 0.0304,-0.0525 -0.22574,-0.45541 -0.56955,-0.89527 -1.63217,-2.08821 -1.93418,-3.48355 -2.17954,-10.07432 -0.20127,-5.40654 -0.0907,-5.94517 1.22002,-5.94517 0.42855,0 0.87538,-0.16431 0.99294,-0.36521 0.28838,-0.49281 2.39524,-1.93693 2.82583,-1.93693 0.18956,0 0.52115,-0.4892 0.73712,-1.08711 0.47241,-1.30781 1.65292,-1.98138 3.4737,-1.98189 z m 30.79601,3.28333 c 0.99549,-0.007 2.34981,0.007 3.82346,0.0414 5.91023,0.14106 6.29592,0.23899 7.3645,1.86848 0.45183,0.68901 0.51281,1.09865 0.38684,2.60789 -0.20124,2.41115 -0.24138,2.68013 -0.37953,2.54793 -0.20068,-0.19206 -0.83929,0.43723 -0.68544,0.67545 0.0795,0.12313 -0.062,0.14809 -0.31428,0.0555 -0.26384,-0.0969 -0.3915,-0.0642 -0.30069,0.0765 0.0868,0.13444 -0.0438,0.27801 -0.29026,0.31924 -0.24647,0.0411 -2.87815,0.12994 -5.84796,0.19734 l -5.39952,0.1229 -0.0799,-4.13315 c -0.0438,-2.27324 -0.0192,-4.20813 0.0542,-4.2995 0.0368,-0.0457 0.67297,-0.073 1.66846,-0.0799 z m -93.254098,6.63013 0.144086,0.14787 c -0.16818,-0.0392 -0.235764,-0.091 -0.14565,-0.14588 0.0011,-7.7e-4 8.02e-4,-9.7e-4 0.0016,-0.002 z m 83.619218,3.90382 1.23569,0.75888 c -0.63993,-0.0153 -1.04708,-0.26396 -1.23569,-0.75888 z"
       id="path57"
       inkscape:connector-curvature="0"
       sodipodi:nodetypes="sscscccccscscssscssccccscccsscccssscccssscccccccccsscsssccccscccccccccsccssccccccccsccccccccscscccccccccccscccccssccccssccscccsscccsccccsscccccccccccscccsccsscccccccsscccsscssccccssccsscscccssscsscsccsccccscccssccccccccc" />
    <path
       style="fill:#00ccff;stroke-width:0.26147673"
       d="m 57.465109,262.95183 c -0.791911,-0.36176 -1.452641,-0.85567 -1.554154,-1.16176 -0.208164,-0.62766 0.04245,-1.12776 0.445635,-0.88929 0.161891,0.0957 0.23123,0.0176 0.16165,-0.18214 -0.06701,-0.19238 -0.02109,-0.46739 0.102029,-0.61114 0.123129,-0.14372 1.379933,-1.66942 2.792898,-3.39044 1.412964,-1.72101 2.677501,-3.06496 2.810081,-2.98655 0.13258,0.0784 0.223829,0.0476 0.202778,-0.0683 -0.09646,-0.5314 0.0617,-0.62967 0.492785,-0.30613 0.422824,0.31735 0.432917,0.30853 0.10507,-0.0918 -0.32206,-0.39324 -0.125141,-0.70839 1.758108,-2.81372 l 2.120787,-2.37087 52.874004,-0.0645 c 38.60386,-0.0472 52.97097,0.0124 53.23334,0.22083 0.19765,0.15698 0.28195,0.40526 0.18735,0.55175 -0.0945,0.14647 -0.0545,0.19688 0.0889,0.11201 0.1435,-0.0848 0.43271,0.0422 0.64269,0.28243 2.42117,2.76962 2.81162,3.30837 2.77147,3.824 -0.0336,0.43169 0.0385,0.51166 0.28487,0.31599 0.24135,-0.1917 0.5361,-0.004 1.09866,0.701 0.42286,0.52964 0.73619,1.05787 0.69632,1.17383 -0.0399,0.11597 0.0278,0.15153 0.1504,0.079 0.26245,-0.15523 3.43298,3.65105 3.32526,3.99203 -0.0404,0.12788 0.035,0.1684 0.16736,0.0901 0.29614,-0.17516 1.64345,1.63652 1.64345,2.20988 0,0.56918 -1.3412,1.5341 -1.92818,1.38719 -0.26298,-0.0658 -0.41551,-0.0227 -0.33896,0.0959 0.23164,0.35867 -2.1834,0.57853 -4.87496,0.44379 -1.51024,-0.0756 -2.61629,-0.248 -2.73105,-0.4257 -0.10608,-0.16426 -0.39374,-0.22489 -0.63926,-0.13473 -0.25969,0.0953 -0.44638,0.0392 -0.44638,-0.13433 0,-0.16403 -0.11669,-0.22923 -0.25933,-0.14487 -0.387,0.2289 -2.97022,-0.90519 -2.76956,-1.21589 0.10239,-0.15856 0.0404,-0.18786 -0.1541,-0.0728 -0.37092,0.21938 -1.42392,-0.57627 -1.20707,-0.91206 0.0777,-0.12028 -0.0651,-0.14288 -0.31744,-0.0503 -0.3358,0.12332 -0.40005,0.0777 -0.23986,-0.17035 0.14557,-0.22542 0.11551,-0.27771 -0.0898,-0.15627 -0.16972,0.10038 -0.31043,0.43471 -0.31268,0.74295 -0.006,0.81353 -0.31086,1.12898 -1.03738,1.07325 -0.58412,-0.0449 -0.59919,-0.0202 -0.17107,0.27937 0.42591,0.29804 0.37376,0.37098 -0.56226,0.78637 -0.82458,0.36594 -1.74008,0.45886 -4.56008,0.46283 -2.34734,0.003 -3.63316,-0.0954 -3.84142,-0.2948 -0.17218,-0.16486 -0.49854,-0.23163 -0.72526,-0.14837 -0.25036,0.092 -0.34364,0.0453 -0.23759,-0.119 0.0961,-0.14872 0.0256,-0.26524 -0.15662,-0.25897 -0.85772,0.0296 -1.28395,-0.0914 -1.13499,-0.32205 0.0898,-0.13907 -0.003,-0.19189 -0.20557,-0.11739 -0.20288,0.0745 -0.98805,-0.27213 -1.74481,-0.7703 -1.56186,-1.02817 -1.6561,-1.05706 -1.6561,-0.50766 0,0.67026 -1.64102,1.87809 -3.10505,2.28539 -2.75738,0.76712 -8.16546,0.31205 -9.99205,-0.84077 -0.36752,-0.23197 -0.74137,-0.40159 -0.83077,-0.37695 -0.0894,0.0247 -0.50282,-0.29509 -0.9187,-0.71051 -0.41586,-0.4154 -0.85081,-0.75528 -0.96654,-0.75528 -0.11573,0 -0.40205,0.35465 -0.63628,0.78812 -0.26741,0.49486 -0.56713,0.73622 -0.80552,0.64869 -0.20881,-0.0767 -0.35103,-0.0101 -0.31604,0.14801 0.0349,0.1581 -0.71821,0.55376 -1.67375,0.87928 -2.35401,0.80191 -6.11713,0.8348 -8.68452,0.0759 -0.98525,-0.29123 -1.72283,-0.59508 -1.63909,-0.67522 0.0838,-0.0801 -0.23539,-0.3349 -0.7092,-0.56613 -0.47381,-0.23121 -0.82843,-0.569 -0.78804,-0.75065 0.0404,-0.18163 -0.0395,-0.26343 -0.17764,-0.18174 -0.13809,0.0817 -0.29372,0.0261 -0.34583,-0.12353 -0.0521,-0.14961 -0.30225,-0.19582 -0.55586,-0.10269 -0.25362,0.0931 -0.39942,0.26488 -0.32401,0.38165 0.17455,0.27032 -1.51004,1.5109 -2.23242,1.64403 -0.30027,0.0554 -0.82439,0.24968 -1.16469,0.43184 -0.41114,0.22008 -1.69495,0.3307 -3.8262,0.32966 -3.38248,-0.002 -4.41024,-0.0985 -4.41024,-0.41572 0,-0.10633 -0.15035,-0.14468 -0.33411,-0.0852 -0.49441,0.15998 -2.21695,-0.74383 -2.13167,-1.11848 0.0404,-0.17747 -0.0362,-0.25784 -0.17019,-0.17858 -0.29895,0.17682 -0.93785,-0.51308 -0.74776,-0.80742 0.0754,-0.1167 -0.0947,-0.21219 -0.37791,-0.21219 -0.28323,0 -0.51495,0.0973 -0.51495,0.21608 0,0.11884 -0.11891,0.14574 -0.26424,0.0598 -0.15723,-0.093 -0.19256,0.0224 -0.0873,0.2851 0.13716,0.34203 0.0731,0.40326 -0.28423,0.27201 -0.25366,-0.0932 -0.39972,-0.0742 -0.32456,0.0422 0.21077,0.32638 -1.66378,1.22868 -3.488563,1.6792 -1.919869,0.47399 -6.141296,0.5373 -7.227603,0.10837 -0.413844,-0.16341 -0.852962,-0.27522 -0.975821,-0.24848 -0.452908,0.0986 -1.959923,-0.99346 -2.323763,-1.68386 -0.206423,-0.3917 -0.406092,-0.757 -0.443713,-0.81179 -0.03762,-0.0549 -0.494204,0.21119 -1.014631,0.59107 -1.127913,0.8233 -3.821917,2.00283 -4.142007,1.8135 -0.124521,-0.0737 -0.270909,-0.006 -0.325305,0.15005 -0.06212,0.17832 -1.33817,0.33135 -3.430747,0.41142 -2.862438,0.10953 -3.520123,0.0579 -4.668277,-0.36655 -0.735041,-0.27173 -1.306368,-0.62881 -1.269616,-0.79353 0.03675,-0.16471 -0.06755,-0.27071 -0.231781,-0.23553 -0.164232,0.0352 -0.335387,-0.14648 -0.380345,-0.40367 -0.210411,-1.20369 -0.342379,-1.27591 -1.260242,-0.68967 -1.380703,0.88188 -3.717014,1.83565 -4.127362,1.68496 -0.235515,-0.0865 -0.305341,-0.0285 -0.186791,0.15503 0.128151,0.19843 0.0072,0.24758 -0.374232,0.15212 -0.309957,-0.0776 -0.607716,-0.0142 -0.661686,0.14069 -0.06252,0.17949 -1.352472,0.3136 -3.554375,0.36953 -3.222216,0.0819 -3.549522,0.0452 -4.833812,-0.54152 z m 33.691819,-0.63299 c 0.07572,-0.11725 -0.03217,-0.21317 -0.239755,-0.21317 -0.207578,0 -0.315468,0.0959 -0.239753,0.21317 0.07572,0.11724 0.183602,0.21316 0.239753,0.21316 0.05615,0 0.164043,-0.0959 0.239755,-0.21316 z m -28.222917,-7.33949 c -0.08229,-0.0788 -0.231751,0.0632 -0.332126,0.31548 -0.145052,0.36456 -0.114352,0.39393 0.149627,0.1432 0.182667,-0.17352 0.264794,-0.37992 0.182499,-0.45868 z m 115.519809,0.13467 c 0,-0.14068 -0.053,-0.25579 -0.11786,-0.25579 -0.0649,0 -0.19222,0.11511 -0.28306,0.25579 -0.0908,0.14069 -0.0378,0.25579 0.11786,0.25579 0.15568,0 0.28306,-0.1151 0.28306,-0.25579 z"
       id="path65"
       inkscape:connector-curvature="0" />
  </g>
</svg>
